# xmcd
#
# Track frame offsets: 
#        150
#        14279
#        32198
#        53506
#        72789
#        86170
#        102579
#        115261
#        135471
#        153323
#        168557
#        183210
#        209768
#
# Disc length: 2967 seconds
#
# Revision: 0
# Processed by: cddbd v1.5.2PL0 Copyright (c) Steve Scherf et al.
# Submitted via: ExactAudioCopy v1.3
#
DISCID=b00b950d
DTITLE=Jan Arild Sørnes - Livets Blues
DYEAR=2012
DGENRE=Blues
TTITLE0=Store blå
TTITLE1=Livets blues
TTITLE2=Du e mæ ei fin ei
TTITLE3=Hvit som sne
TTITLE4=Gjør det rett
TTITLE5=Barføttes
TTITLE6=Ka ho sir
TTITLE7=Her og nu
TTITLE8=Mye blues
TTITLE9=Så jævla underbar
TTITLE10=Min tur
TTITLE11=Kem av oss to
TTITLE12=Rock n'roll bitch
EXTD=
EXTT0=
EXTT1=
EXTT2=
EXTT3=
EXTT4=
EXTT5=
EXTT6=
EXTT7=
EXTT8=
EXTT9=
EXTT10=
EXTT11=
EXTT12=
PLAYORDER=
